# xmcd
#
# Track frame offsets:
#	150
#	15159
#	24915
#	35251
#	47441
#	59870
#	70265
#	80021
#	89386
#	98542
#	109269
#	119146
#	130118
#	140800
#	152908
#	161408
#	171004
#	179832
#
# Disc length: 2552 seconds
#
# Revision: 1
# Processed by: cddbd v1.5.2PL0 Copyright (c) Steve Scherf et al.
# Submitted via: audiograbber 1.83.01
#
DISCID=f309f612
DTITLE=George Jones - Salutes Hank Williams  LP MERCURY 60257   1960
DYEAR=1960
DGENRE=Country
TTITLE0=Cold Cold Heart
TTITLE1=Nobody's Lonesome For Me
TTITLE2=Hey Good Lookin'
TTITLE3=Howlin' At The Moon
TTITLE4=There'ii Be No Teardrops Tonight
TTITLE5=Half As Much
TTITLE6=Jambalaya ( On The Bayou)
TTITLE7=Why Don't You Love Me (Like You Used To Do)
TTITLE8=Honky Tonkin'
TTITLE9=I Can't Help It (If I'm Still In Love With You)
TTITLE10=Sattin' The Woods In Fire
TTITLE11=Window Shopping
TTITLE12=Bubbles In My Beer
TTITLE13=Faded Love
TTITLE14=Roly Poly
TTITLE15=Trouble In Mind
TTITLE16=Take Me Back To Tulsa
TTITLE17=The Warm Red Wine
EXTD=
EXTT0=
EXTT1=
EXTT2=
EXTT3=
EXTT4=
EXTT5=
EXTT6=
EXTT7=
EXTT8=
EXTT9=
EXTT10=
EXTT11=
EXTT12=
EXTT13=
EXTT14=
EXTT15=
EXTT16=
EXTT17=
PLAYORDER=
